<?xml version="1.0" encoding="UTF-8"?>
<svg version="1.0" xmlns="http://www.w3.org/2000/svg"
     width="1024" height="1024" viewBox="0 0 1024 1024"
     preserveAspectRatio="xMidYMid meet">

    <defs>
        <pattern id="background" patternUnits="userSpaceOnUse" width="100" height="100">
            <rect width="100" height="100" fill="#ffffff"/>
        </pattern>
    </defs>

    <rect width="100%" height="100%" fill="#ffffff"/>

    <g transform="translate(0,1024) scale(0.1,-0.1)" fill="#2b3dc4" stroke="none">
        <path d="M0 5120 l0 -5120 5120 0 5120 0 0 5120 0 5120 -5120 0 -5120 0 0 -5120z m5495 3490 c255 -30 570 -101 795 -179 840 -291 1524 -892 1924 -1688 86 -171 93 -188 152 -347 241 -650 278 -1376 107 -2059 -216 -863 -789 -1632 -1562 -2097 -776 -466 -1729 -617 -2581 -409 -1113 272 -2025 1062 -2435 2109 -304 776 -310 1673 -17 2455 117 313 286 615 516 920 114 151 410 449 566 569 582 448 1217 689 1950 740 96 7 491 -3 585 -14z"/>
        <path d="M4805 8389 c-1004 -94 -1926 -666 -2449 -1522 -390 -636 -544 -1394 -435 -2142 82 -570 301 -1073 667 -1535 105 -133 395 -418 531 -523 461 -355 981 -581 1541 -668 172 -27 561 -37 747 -20 955 88 1825 592 2372 1376 310 444 502 958 563 1510 17 152 17 527 0 665 -70 574 -234 1021 -540 1470 -340 500 -817 891 -1377 1130 -309 132 -702 232 -1025 260 -134 11 -465 11 -595 -1z m397 -426 c2 -62 0 -111 -5 -114 -5 -4 -77 -10 -158 -14 l-149 -7 0 -65 c0 -57 2 -64 18 -59 9 2 74 8 145 12 l127 6 0 -48 c0 -27 3 -72 6 -100 l6 -51 -141 -8 -141 -7 0 -59 c0 -69 -18 -65 189 -49 74 6 136 8 138 6 7 -7 19 -216 13 -217 -3 0 -129 -8 -280 -17 -266 -17 -275 -17 -278 1 -6 29 -59 852 -56 856 2 2 110 9 241 17 224 13 300 18 314 22 4 1 9 -46 11 -105z m523 32 l110 -26 59 -207 c33 -114 64 -222 71 -240 10 -32 13 -26 70 165 32 109 61 201 65 206 7 8 210 -62 210 -72 0 -8 -19 -71 -144 -486 -54 -176 -99 -327 -102 -337 -4 -14 -16 -12 -108 18 l-103 35 -62 227 c-33 125 -64 242 -67 260 -4 18 -8 31 -11 29 -2 -3 -31 -98 -63 -212 -33 -115 -62 -210 -63 -212 -4 -3 -207 44 -213 49 -3 4 15 73 116 438 100 360 109 390 118 390 4 0 57 -11 117 -25z m-1491 -92 c56 -117 329 -764 324 -768 -2 -1 -46 -21 -98 -44 l-95 -41 -140 94 c-77 52 -175 119 -217 150 -43 30 -78 52 -78 48 0 -5 4 -12 9 -18 7 -7 139 -306 167 -379 4 -11 -192 -113 -200 -104 -2 2 -79 180 -171 394 -91 215 -168 395 -171 401 -3 5 41 31 97 57 l101 46 213 -143 213 -143 -80 181 c-44 99 -82 189 -85 199 -4 13 11 24 73 52 44 19 86 39 94 44 23 15 25 14 44 -26z m2629 -413 c4 -4 -33 -58 -84 -121 -50 -63 -96 -119 -100 -125 -5 -6 62 11 149 39 86 27 167 51 180 54 16 4 47 -13 120 -67 53 -40 101 -76 106 -81 7 -6 -231 -87 -396 -134 -32 -9 -58 -17 -58 -18 0 -17 -71 -502 -74 -504 -5 -5 -200 135 -204 146 -1 4 9 79 23 166 14 87 24 160 22 162 -2 2 -17 0 -33 -3 -22 -4 -46 -29 -103 -105 -41 -54 -76 -99 -78 -99 -2 0 -49 32 -104 71 l-99 71 48 57 c44 52 224 279 417 528 l78 101 91 -66 c50 -36 95 -68 99 -72z m-3556 -379 c131 -70 308 -166 393 -211 85 -46 157 -85 160 -87 2 -2 -37 -45 -87 -95 l-92 -90 -59 36 c-33 20 -64 35 -68 35 -5 -1 -44 -39 -88 -85 l-78 -83 37 -61 38 -62 -90 -89 -89 -90 -204 404 -205 404 95 101 c52 56 96 101 97 102 1 0 109 -58 240 -129z m2089 -217 c162 -23 299 -65 476 -147 l87 -40 -146 -153 -146 -153 -54 25 c-157 69 -332 104 -523 104 -440 0 -843 -215 -1100 -587 -370 -534 -303 -1250 160 -1713 204 -204 420 -324 695 -386 110 -25 359 -30 491 -9 505 78 927 439 1083 927 45 143 61 250 61 417 0 216 -27 357 -105 550 l-38 92 134 137 c74 75 136 138 139 140 11 5 79 -125 123 -233 77 -188 112 -339 127 -552 27 -381 -77 -786 -282 -1093 -178 -266 -449 -500 -728 -628 -216 -99 -425 -149 -665 -158 -299 -12 -543 38 -810 165 -200 96 -341 196 -503 358 -228 229 -397 545 -462 863 -79 390 -33 758 140 1117 271 564 805 923 1450 977 75 6 289 -5 396 -20z m803 -356 c7 -73 15 -149 18 -169 l5 -37 154 -17 154 -18 -169 -176 c-93 -97 -182 -188 -198 -202 l-28 -26 -103 10 -104 10 -294 -294 -295 -295 22 -48 c29 -66 28 -158 -1 -216 -43 -84 -148 -150 -239 -150 -192 0 -326 197 -247 366 49 106 144 162 256 151 l57 -5 307 307 306 306 -11 87 c-6 48 -9 98 -7 112 2 17 69 96 197 231 107 113 197 205 200 205 4 0 13 -60 20 -132z m1482 24 l66 -108 -71 -85 c-39 -46 -171 -200 -293 -341 l-222 -257 -62 102 c-34 56 -64 106 -67 110 -2 5 22 35 53 67 l58 59 -63 105 c-34 58 -63 106 -64 106 0 0 -35 -9 -76 -20 -41 -10 -75 -18 -75 -17 -1 1 -32 49 -69 106 -37 57 -66 104 -64 106 2 1 163 33 358 70 293 56 402 77 520 104 3 0 35 -48 71 -107z m-4839 -15 c70 -31 140 -102 163 -162 26 -66 17 -153 -23 -239 -18 -37 -32 -72 -32 -77 0 -7 57 -36 197 -100 l41 -19 -45 -104 -46 -104 -71 32 c-396 183 -697 324 -703 330 -7 7 147 340 175 381 16 23 49 51 82 68 50 26 62 28 130 25 53 -3 92 -12 132 -31z m2441 -412 c79 -14 232 -62 267 -85 12 -8 -13 -38 -126 -151 l-142 -142 -81 13 c-285 44 -571 -134 -662 -412 -31 -96 -34 -263 -5 -348 89 -262 295 -425 554 -438 119 -6 196 10 302 60 69 33 101 56 165 122 93 93 135 168 161 283 21 94 15 220 -15 313 l-21 65 140 139 139 140 45 -95 c73 -152 91 -236 90 -419 -2 -208 -33 -325 -135 -507 -62 -110 -223 -270 -344 -341 -167 -98 -333 -137 -544 -129 -195 7 -330 49 -486 151 -107 70 -172 131 -245 228 -133 176 -200 373 -200 588 0 171 27 285 105 445 186 379 615 594 1038 520z m-2184 -1728 c61 -153 111 -282 111 -287 0 -7 -151 -70 -168 -70 -4 0 -23 41 -42 90 -19 50 -40 90 -47 90 -6 0 -92 -30 -190 -66 -272 -100 -345 -126 -348 -122 -9 9 -74 193 -69 197 3 3 123 48 268 101 l264 95 -34 85 c-19 46 -34 87 -34 91 0 6 172 80 177 76 1 -1 51 -127 112 -280z m4424 247 c79 -28 147 -104 147 -165 0 -24 -17 -25 180 5 58 9 114 19 124 22 15 5 18 3 13 -10 -4 -9 -21 -63 -38 -119 l-31 -103 -139 -18 c-79 -10 -140 -23 -142 -30 -2 -6 39 -27 97 -49 56 -21 104 -42 109 -46 4 -4 -11 -52 -34 -108 l-41 -100 -217 84 c-456 177 -501 195 -501 199 0 3 17 46 38 97 22 51 52 125 68 165 16 41 43 91 61 111 70 83 186 107 306 65z m-380 -673 c6 -7 -50 -86 -139 -197 l-33 -42 40 -28 c25 -17 43 -24 47 -18 20 30 135 174 139 174 2 0 32 -21 66 -47 33 -27 65 -51 70 -55 6 -3 -21 -46 -60 -95 -38 -48 -72 -93 -76 -100 -4 -6 9 -24 31 -42 l39 -30 92 115 92 115 27 -20 c15 -11 48 -40 75 -63 l47 -43 -47 -60 c-149 -190 -275 -345 -280 -345 -7 0 -58 41 -229 185 -72 60 -186 155 -252 209 l-121 99 40 51 c23 28 94 119 157 202 l117 151 75 -55 c41 -30 78 -58 83 -61z m-3705 -139 l25 -33 -219 -329 c-121 -181 -222 -330 -225 -330 -7 0 -139 156 -139 165 0 3 18 30 41 60 l41 54 -72 86 c-39 47 -73 85 -76 85 -2 0 -32 -11 -66 -25 -50 -20 -64 -23 -74 -13 -24 26 -134 163 -134 168 0 3 170 64 378 137 l377 132 59 -62 c32 -34 70 -77 84 -95z m341 -349 c2 -1 -28 -51 -66 -111 l-70 -109 89 -57 c49 -32 90 -56 92 -54 60 95 131 200 137 204 6 3 138 -65 178 -93 4 -2 -64 -109 -277 -435 l-136 -208 -30 20 c-17 11 -57 35 -89 52 -35 19 -56 36 -53 44 3 7 41 67 85 132 l79 120 -84 56 c-46 31 -88 56 -93 56 -5 0 -44 -55 -88 -122 -43 -67 -81 -126 -85 -132 -4 -7 -15 -3 -30 10 -13 12 -51 40 -85 63 l-61 43 135 206 c75 114 169 258 210 320 l73 112 83 -57 c45 -31 84 -58 86 -60z m2687 -90 c28 -38 102 -137 164 -220 61 -84 114 -153 117 -153 3 0 53 33 112 74 l106 74 54 -76 c29 -42 55 -81 57 -87 4 -10 -335 -268 -370 -281 -9 -3 -95 106 -241 304 -125 171 -228 313 -229 317 -1 7 162 114 174 115 3 0 28 -30 56 -67z m-175 -643 c38 -119 69 -218 69 -221 0 -3 -40 -18 -89 -34 l-88 -28 -174 143 c-96 79 -177 148 -181 154 -16 24 -6 -16 52 -193 33 -102 59 -185 57 -186 -1 -1 -46 -16 -99 -32 l-97 -30 -42 131 c-66 211 -188 610 -186 611 1 1 45 15 97 32 l95 31 172 -144 c94 -79 174 -144 178 -144 3 0 2 8 -4 18 -10 20 -112 345 -108 347 1 1 43 16 92 32 l90 30 48 -151 c27 -83 80 -248 118 -366z m-1926 422 c128 -33 109 -3 153 -240 l27 -143 100 131 c55 72 105 138 111 146 10 12 26 11 123 -10 62 -13 115 -27 118 -29 7 -8 -146 -730 -158 -741 -7 -7 -193 41 -196 50 -1 5 19 95 45 201 26 105 43 189 39 186 -5 -3 -52 -60 -104 -127 -53 -66 -99 -124 -102 -128 -11 -12 -90 13 -95 31 -2 9 -19 87 -37 174 -17 86 -33 156 -34 155 -2 -2 -24 -95 -50 -208 -26 -113 -48 -207 -50 -209 -9 -9 -185 42 -185 54 0 7 36 173 80 369 44 196 80 358 80 361 0 9 23 5 135 -23z m1015 -139 c0 -21 9 -195 20 -388 10 -192 18 -351 16 -353 -7 -6 -208 -24 -213 -18 -4 3 -14 155 -24 338 -10 183 -19 356 -21 385 l-3 52 85 6 c47 4 90 8 95 10 34 12 45 4 45 -32z"/>
        <path d="M3215 6843 c37 -70 70 -130 72 -133 2 -2 27 20 54 49 27 30 48 54 47 55 -2 1 -56 37 -122 80 l-119 78 68 -129z"/>
        <path d="M7438 6435 c-3 -3 -56 -19 -119 -36 -62 -16 -114 -30 -115 -32 -1 -1 15 -30 35 -65 l38 -62 88 95 c48 53 86 98 83 100 -3 3 -7 3 -10 0z"/>
        <path d="M2650 6350 c-16 -9 -67 -107 -59 -114 2 -2 43 -22 92 -44 l87 -41 19 37 c39 77 29 121 -32 151 -46 22 -82 26 -107 11z"/>
        <path d="M7353 4455 c-11 -8 -28 -34 -36 -59 l-15 -43 84 -32 c46 -18 88 -30 92 -27 5 3 14 23 22 46 18 54 3 85 -53 110 -51 24 -66 24 -94 5z"/>
        <path d="M3092 3721 c-52 -22 -96 -42 -99 -45 -3 -3 14 -28 37 -56 l42 -50 60 87 c74 109 71 103 61 103 -4 0 -50 -18 -101 -39z"/>
    </g>
</svg>